# xmcd
#
# Track frame offsets: 
#        210
#        14107
#        26920
#        41696
#        55389
#        70588
#        82761
#        95530
#        111262
#        126235
#        139162
#        151937
#        164613
#        177669
#        190630
#        204011
#        217400
#        231612
#        246484
#        259403
#        272935
#        285733
#        299009
#        312019
#        323721
#        337302
#
# Disc length: 4659 seconds
#
# Revision: 0
# Processed by: cddbd v1.5.2PL0 Copyright (c) Steve Scherf et al.
# Submitted via: ExactAudioCopy v0.99pb4
#
DISCID=a612311a
DTITLE=Various Artist - Rare Country Blues Vol, 2 - 1929 - 1943
DYEAR=1999
DGENRE=Blues
TTITLE0=That white mule of sin
TTITLE1=The heavenly airplane
TTITLE2=Narrow face blues
TTITLE3=Wasn`t it sad about Lemon
TTITLE4=Insurance man blues
TTITLE5=Overall cheater blues
TTITLE6=Disconnected mama
TTITLE7=Billy goat blues
TTITLE8=Old Timbrook blues
TTITLE9=Thirty-eight and plus
TTITLE10=Deal rag
TTITLE11=Corrine Corrine
TTITLE12=Yo-yo blues
TTITLE13=Broadcasting blues
TTITLE14=You rascal, you
TTITLE15=Diamond ring blues
TTITLE16=Coal camp blues (Taylor`s Weatherbirds)
TTITLE17=Do you love me blues (taylor`s weatherbirds)
TTITLE18=Dice`s blues
TTITLE19=Shotgun blues
TTITLE20=Starvation farm blues
TTITLE21=Worried all the time
TTITLE22=Tampa blues
TTITLE23=Gas ration blues
TTITLE24=Broome Street blues
TTITLE25=West Kinney Street blues
EXTD=
EXTT0=
EXTT1=
EXTT2=
EXTT3=
EXTT4=
EXTT5=
EXTT6=
EXTT7=
EXTT8=
EXTT9=
EXTT10=
EXTT11=
EXTT12=
EXTT13=
EXTT14=
EXTT15=
EXTT16=
EXTT17=
EXTT18=
EXTT19=
EXTT20=
EXTT21=
EXTT22=
EXTT23=
EXTT24=
EXTT25=
PLAYORDER=
